<svg xmlns="http://www.w3.org/2000/svg" viewBox="0 0 512 512"><defs><linearGradient id="a" x1="0%" x2="100%" y1="0%" y2="100%"><stop offset="0%" stop-color="#0f172a"/><stop offset="50%" stop-color="#1e1b4b"/><stop offset="100%" stop-color="#311042"/></linearGradient><linearGradient id="b" x1="0%" x2="0%" y1="100%" y2="0%"><stop offset="0%" stop-color="#06b6d4" stop-opacity=".2"/><stop offset="100%" stop-color="#3b82f6" stop-opacity=".7"/></linearGradient><linearGradient id="c" x1="0%" x2="0%" y1="100%" y2="0%"><stop offset="0%" stop-color="#3b82f6" stop-opacity=".3"/><stop offset="60%" stop-color="#8b5cf6" stop-opacity=".8"/><stop offset="100%" stop-color="#ec4899" stop-opacity=".9"/></linearGradient><linearGradient id="d" x1="0%" x2="0%" y1="100%" y2="0%"><stop offset="0%" stop-color="#ec4899" stop-opacity=".4"/><stop offset="70%" stop-color="#f43f5e" stop-opacity=".9"/><stop offset="100%" stop-color="#f59e0b"/></linearGradient><linearGradient id="e" x1="0%" x2="100%" y1="0%" y2="0%"><stop offset="0%" stop-color="#06b6d4"/><stop offset="50%" stop-color="#f43f5e"/><stop offset="100%" stop-color="#f59e0b"/></linearGradient><filter id="f" width="140%" height="140%" x="-20%" y="-20%"><feGaussianBlur stdDeviation="8"/><feComposite in="SourceGraphic"/></filter><filter id="g" width="140%" height="140%" x="-20%" y="-20%"><feDropShadow dx="0" dy="6" flood-color="#000" flood-opacity=".8" stdDeviation="8"/></filter></defs><path fill="url(#a)" d="M0 0h512v512H0z"/><g opacity=".85"><g fill="url(#b)"><rect width="28" height="120" x="48" y="300" rx="4"/><rect width="28" height="200" x="88" y="220" rx="4"/></g><g fill="url(#c)"><rect width="28" height="260" x="128" y="160" rx="4"/><rect width="28" height="320" x="168" y="100" rx="4"/></g><g fill="url(#d)"><rect width="28" height="360" x="208" y="60" rx="4"/><rect width="28" height="330" x="248" y="90" rx="4"/></g><g fill="url(#c)"><rect width="28" height="280" x="288" y="140" rx="4"/><rect width="28" height="230" x="328" y="190" rx="4"/></g><g fill="url(#b)"><rect width="28" height="160" x="368" y="260" rx="4"/><rect width="28" height="110" x="408" y="310" rx="4"/><rect width="28" height="70" x="448" y="350" rx="4"/></g></g><path fill="none" stroke="url(#e)" stroke-linecap="round" stroke-width="12" d="M40 256c50 0 80-186 140-186s90 372 150 372 90-186 142-186" filter="url(#f)"/><text x="256" y="298" fill="#fff" filter="url(#g)" font-family="system-ui, -apple-system, BlinkMacSystemFont, Segoe UI, Roboto, Ubuntu, sans-serif" font-size="124" font-weight="800" letter-spacing="4" text-anchor="middle">FAAC</text></svg>